<svg t="1666364670765" class="icon" viewBox="0 0 1024 1024" version="1.1" xmlns="http://www.w3.org/2000/svg" p-id="9196" width="200" height="200">
    <path d="M812.137931 359.812414a52.965517 52.965517 0 0 1-24.717241-6.708966l-163.310345 137.004138-90.041379-194.206896a64.617931 64.617931 0 0 1-44.491035 0l-90.041379 194.206896L236.57931 353.103448a52.965517 52.965517 0 0 1-24.717241 6.355862h-4.943448L334.212414 776.827586h355.575172l127.470345-417.544827z" fill="#F49600" p-id="9197"></path>
    <!-- <path d="M0 0m282.482759 0l459.034482 0q282.482759 0 282.482759 282.482759l0 459.034482q0 282.482759-282.482759 282.482759l-459.034482 0q-282.482759 0-282.482759-282.482759l0-459.034482q0-282.482759 282.482759-282.482759Z" fill="#FFA658" p-id="9198"></path> -->
    <path d="M853.274483 324.502069a31.77931 31.77931 0 1 0-38.135173 31.073103l-181.495172 152.54069-101.693793-220.513103a42.01931 42.01931 0 1 0-21.009655 0l-101.870345 220.513103-181.495173-152.54069a31.77931 31.77931 0 1 0-17.655172-1.765517l134.355862 441.379311h354.868966l134.355862-441.379311a31.77931 31.77931 0 0 0 19.773793-29.307586z" fill="#FF942E" p-id="9199"></path>
    <path d="M843.917241 306.846897a31.77931 31.77931 0 1 0-38.135172 31.073103l-181.495172 152.54069-101.693794-220.513104a42.01931 42.01931 0 1 0-21.009655 0l-101.870345 220.513104-181.495172-152.54069a31.77931 31.77931 0 1 0-17.655172-1.765517l134.355862 441.37931h354.868965l134.355862-441.37931a31.77931 31.77931 0 0 0 19.773793-29.307586z" fill="#FFCD30" p-id="9200"></path>
    <path d="M812.137931 371.994483h-4.237241l-183.613793 154.129655-102.046897-221.572414a36.546207 36.546207 0 0 1-9.004138 1.235862 35.310345 35.310345 0 0 1-10.946207-1.765517l-102.4 221.748965-182.731034-153.423448a37.958621 37.958621 0 0 1-7.415173 0 35.310345 35.310345 0 0 1-9.710345-1.412414l20.126897 65.853794L435.023448 623.227586 512 397.594483l94.631724 225.633103L803.310345 439.790345l21.362758-70.62069a35.310345 35.310345 0 0 1-12.535172 2.824828z" fill="#FFA658" p-id="9201"></path>
    <path d="M812.137931 354.33931h-4.237241l-183.613793 154.129656-102.046897-221.572414a36.546207 36.546207 0 0 1-9.004138 1.235862 35.310345 35.310345 0 0 1-10.946207-1.765517l-102.4 221.748965-182.731034-153.423448a37.958621 37.958621 0 0 1-7.415173 0 35.310345 35.310345 0 0 1-9.710345-1.412414l20.126897 65.853793L435.023448 605.572414 512 379.93931l94.631724 225.633104L803.310345 422.135172l21.362758-70.620689a35.310345 35.310345 0 0 1-12.535172 2.824827z" fill="#FF942E" p-id="9202"></path>
    <path d="M812.137931 336.684138h-4.237241l-183.613793 154.129655-102.046897-221.572414a36.546207 36.546207 0 0 1-9.004138 1.235862 35.310345 35.310345 0 0 1-10.946207-1.765517l-102.4 221.748966-182.731034-153.423449a37.958621 37.958621 0 0 1-7.415173 0 35.310345 35.310345 0 0 1-9.710345-1.412413l20.126897 65.853793L435.023448 587.917241 512 362.284138l94.631724 225.633103L803.310345 404.48l21.362758-70.62069a35.310345 35.310345 0 0 1-12.535172 2.824828z" fill="#FFFA39" p-id="9203"></path>
</svg>