<?xml version="1.0" standalone="no"?>
<!DOCTYPE svg PUBLIC "-//W3C//DTD SVG 1.1//EN" "http://www.w3.org/Graphics/SVG/1.1/DTD/svg11.dtd">
<svg t="1646896809095" class="icon" viewBox="0 0 1024 1024" version="1.1" xmlns="http://www.w3.org/2000/svg" p-id="17055" xmlns:xlink="http://www.w3.org/1999/xlink" width="192" height="192">
    <path d="M895.413901 461.346343 589.259106 461.346343 589.259106 127.913275c0-35.320437-28.638247-63.956637-63.956637-63.956637-35.320437 0-63.956637 28.636201-63.956637 63.956637l0 333.433068L127.934253 461.346343c-35.320437 0-63.956637 28.636201-63.956637 63.956637s28.636201 63.956637 63.956637 63.956637l333.411579 0L461.345832 895.392924c0 35.287691 28.636201 63.956637 63.956637 63.956637 35.31839 0 63.956637-28.668946 63.956637-63.956637L589.259106 589.259618 895.413901 589.259618c35.350113 0 63.956637-28.636201 63.956637-63.956637S930.764014 461.346343 895.413901 461.346343z" fill="#00B2B2" p-id="17056"></path>
</svg>