<svg t="1650461509510" class="icon" viewBox="0 0 1024 1024" version="1.1" xmlns="http://www.w3.org/2000/svg" p-id="7348" width="200" height="200">
    <path d="M853.333333 298.666667h-298.666666l-59.733334-89.6c-17.066667-25.6-42.666667-38.4-72.533333-38.4H170.666667c-46.933333 0-85.333333 38.4-85.333334 85.333333v512c0 46.933333 38.4 85.333333 85.333334 85.333333h682.666666c46.933333 0 85.333333-38.4 85.333334-85.333333V384c0-46.933333-38.4-85.333333-85.333334-85.333333z m-85.333333 213.333333H256c-21.333333 0-42.666667-21.333333-42.666667-42.666667s21.333333-42.666667 42.666667-42.666666h512c21.333333 0 42.666667 21.333333 42.666667 42.666666s-21.333333 42.666667-42.666667 42.666667z" p-id="7349"></path>
</svg>