<svg t="1586769742934" class="icon" viewBox="0 0 1024 1024" version="1.1" xmlns="http://www.w3.org/2000/svg" p-id="11850" xmlns:xlink="http://www.w3.org/1999/xlink" width="192" height="192">
    <path d="M907.6 405.5v334.7c0 29.2-10.5 54.2-31.4 75.1-20.9 20.9-46 31.4-75.1 31.4H222.9c-29.2 0-54.2-10.5-75.1-31.4s-31.4-46-31.4-75.1V283.8c0-29.2 10.5-54.2 31.4-75.1s46-31.4 75.1-31.4H375c29.2 0 54.2 10.5 75.1 31.4s31.4 46 31.4 75.1V299H801c29.2 0 54.2 10.5 75.1 31.4 21 20.9 31.5 45.9 31.5 75.1z" p-id="11851"></path>
</svg>