<svg t="1586768879483" class="icon" viewBox="0 0 1024 1024" version="1.1" xmlns="http://www.w3.org/2000/svg" p-id="10611" xmlns:xlink="http://www.w3.org/1999/xlink" width="192" height="192">
    <path d="M752 80H272c-70.4 0-128 57.6-128 128v608c0 70.4 57.6 128 128 128h353.6c33.6 0 65.6-12.8 91.2-36.8l126.4-126.4c24-24 36.8-56 36.8-91.2V208c0-70.4-57.6-128-128-128zM208 816V208c0-35.2 28.8-64 64-64h480c35.2 0 64 28.8 64 64v464h-96c-70.4 0-128 57.6-128 128v80H272c-35.2 0-64-28.8-64-64z m462.4 44.8c-4.8 4.8-9.6 8-14.4 11.2v-72c0-35.2 28.8-64 64-64h75.2L670.4 860.8z" fill="" p-id="10612"></path>
    <path d="M368 352h288c17.6 0 32-14.4 32-32s-14.4-32-32-32H368c-17.6 0-32 14.4-32 32s14.4 32 32 32z m128 256H368c-17.6 0-32 14.4-32 32s14.4 32 32 32h128c17.6 0 32-14.4 32-32s-14.4-32-32-32z m-128-96h288c17.6 0 32-14.4 32-32s-14.4-32-32-32H368c-17.6 0-32 14.4-32 32s14.4 32 32 32z" fill="" p-id="10613"></path>
</svg>