<svg t="1618323941624" class="icon" viewBox="0 0 1024 1024" version="1.1" xmlns="http://www.w3.org/2000/svg" p-id="2653"
    width="192" height="192">
    <path
        d="M874.64 459.79H151.36c-29.47 0-53.35 23.89-53.35 53.36s23.89 53.36 53.35 53.36h723.28c29.47 0 53.36-23.89 53.36-53.36s-23.89-53.36-53.36-53.36zM347 821.43H243.84c-21.61 0-39.13-17.52-39.13-39.13V679.14c0-29.47-23.89-53.35-53.35-53.35-29.47 0-53.35 23.89-53.35 53.35v126.28c0 67.78 54.94 122.72 122.72 122.72H347c29.47 0 53.35-23.89 53.35-53.35 0.01-29.47-23.88-53.36-53.35-53.36zM874.64 625.79c-29.47 0-53.36 23.89-53.36 53.35V782.3c0 21.61-17.52 39.13-39.13 39.13H679c-29.47 0-53.36 23.89-53.36 53.36s23.89 53.35 53.36 53.35h126.27c67.78 0 122.72-54.94 122.72-122.72V679.14c0.01-29.46-23.88-53.35-53.35-53.35zM151.36 400.5c29.47 0 53.36-23.89 53.36-53.36V243.99c0-21.61 17.52-39.13 39.13-39.13H347c29.47 0 53.35-23.89 53.35-53.35 0-29.47-23.89-53.36-53.35-53.36H220.73C152.95 98.15 98 153.09 98 220.87v126.27c0 29.48 23.89 53.36 53.36 53.36zM805.27 98.15H679c-29.47 0-53.36 23.89-53.36 53.36s23.89 53.35 53.36 53.35h103.15c21.61 0 39.13 17.52 39.13 39.13v103.16c0 29.47 23.89 53.36 53.35 53.36h0.01c29.47 0 53.35-23.89 53.35-53.36V220.87c0.01-67.78-54.94-122.72-122.72-122.72z"
        fill="#646C78" p-id="2654"></path>
</svg>